<svg width="50" height="50" viewBox="0 0 50 50" fill="none" xmlns="http://www.w3.org/2000/svg">
<path fill-rule="evenodd" clip-rule="evenodd" d="M9.09091 0C6.67985 0 4.36754 0.95779 2.66267 2.66267C0.95779 4.36754 0 6.67985 0 9.09091V40.9091C0 43.3201 0.95779 45.6325 2.66267 47.3373C4.36754 49.0422 6.67985 50 9.09091 50H40.9091C43.3201 50 45.6325 49.0422 47.3373 47.3373C49.0422 45.6325 50 43.3201 50 40.9091V9.09091C50 6.67985 49.0422 4.36754 47.3373 2.66267C45.6325 0.95779 43.3201 0 40.9091 0H9.09091ZM38.1705 18.0273V7.95455H9.50455V11.0545L12.8568 11.6136C13.2189 11.673 13.5481 11.8592 13.7854 12.139C14.0227 12.4189 14.1528 12.774 14.1523 13.1409V36.8591C14.1519 37.2258 14.0215 37.5804 13.7843 37.86C13.5471 38.1397 13.2185 38.3261 12.8568 38.3864L9.50455 38.9455V42.0455H38.9455L40.4955 31.9727H38.1705L36.3568 35.6023C35.9703 36.3742 35.3765 37.0234 34.6419 37.477C33.9074 37.9305 33.0611 38.1707 32.1977 38.1705H22.675C22.2643 38.1705 21.8704 38.0075 21.5798 37.7173C21.2892 37.4271 21.1256 37.0334 21.125 36.6227V26.55H27.1091C28.5864 26.55 29.8591 27.5932 30.1477 29.0409L30.4227 30.4227H32.7477V18.8023H30.4227L30.0818 20.8614C29.9613 21.5855 29.5876 22.2434 29.0274 22.7178C28.4672 23.1923 27.7568 23.4526 27.0227 23.4523H21.125V11.8273H31.8773C33.3 11.8273 34.5386 12.7932 34.8841 14.1727L35.8477 18.025H38.1705V18.0273Z" fill="#E3E6E8"/>
</svg>
