<svg width="50" height="50" viewBox="0 0 50 50" fill="none" xmlns="http://www.w3.org/2000/svg">
<path fill-rule="evenodd" clip-rule="evenodd" d="M10.7143 0C4.79697 0 0 4.79693 0 10.7143V39.2856C0 45.2029 4.79697 50 10.7143 50H39.286C45.2032 50 50 45.2029 50 39.2856V10.7143C50 4.79693 45.2032 0 39.286 0H10.7143ZM42.3701 10.7298C42.3701 12.4342 40.9883 13.816 39.2839 13.816C37.5794 13.816 36.1977 12.4342 36.1977 10.7298C36.1977 9.02532 37.5794 7.64362 39.2839 7.64362C40.9883 7.64362 42.3701 9.02532 42.3701 10.7298ZM25.0006 16.4405C20.2735 16.4405 16.4413 20.2726 16.4413 24.9997C16.4413 29.7268 20.2735 33.5589 25.0006 33.5589C29.7278 33.5589 33.5599 29.7268 33.5599 24.9997C33.5599 20.2726 29.7278 16.4405 25.0006 16.4405ZM12.3264 24.9997C12.3264 18 18.0009 12.3256 25.0006 12.3256C32.0004 12.3256 37.6748 18 37.6748 24.9997C37.6748 31.9994 32.0004 37.6738 25.0006 37.6738C18.0009 37.6738 12.3264 31.9994 12.3264 24.9997Z" fill="#E3E6E8"/>
</svg>
